<svg xmlns="http://www.w3.org/2000/svg" version="1.1" xmlns:xlink="http://www.w3.org/1999/xlink" xmlns:svgjs="http://svgjs.dev/svgjs" viewBox="0 0 10.55598945727153 9.197246334674322"><g transform="matrix(0.8481923864584585,0,0,0.8481923864584585,1.4993457926493305,4.992075591219246)"><g clip-path="url(#SvgjsClipPath3243)"><g clip-path="url(#a60042c5d-1a98-43eb-baca-2410f665df93f22cecbb-55bb-491c-aaa6-bcfcd349b728)"><path d=" M 1.2721549147385307 -1.6329855567077658 C 1.2720805418550327 -1.6330227431495148 1.2379062018875766 -1.6007077252695159 1.2399886426255282 -1.595390064099389 C 1.2691799993986002 -1.5585754867677446 1.4457784112652479 -1.3242265308646881 1.555069363565959 -0.9942340467828537 C 1.6270251283505375 -0.793613193546264 1.797041540027588 -0.6669933593904553 1.9386103237665497 -0.6334883753744838 C 2.0815921922919784 -0.5968225438098349 2.185007686796326 -0.6391407145203516 2.1992872804279946 -0.6757693596432515 C 2.2205579251085004 -0.7624509553604875 2.031353309488895 -0.9471188250866982 1.7924304212506954 -1.1860045268831487 C 1.6645090616336669 -1.3070092083348381 1.5436531259489743 -1.4316953475196916 1.4451834281972618 -1.5152904685717496 C 1.3481268152320163 -1.6015630134297458 1.2707046435103146 -1.633283048241759 1.2721549147385307 -1.6329855567077658" fill="#769687" transform="matrix(1,0,0,1,0,0)" fill-rule="nonzero"></path></g><g clip-path="url(#a60042c5d-1a98-43eb-baca-2410f665df93f22cecbb-55bb-491c-aaa6-bcfcd349b728)"><path d=" M 2.978120116421903 -1.8577032241977958 C 2.452526948739612 -1.8175418671087291 1.8623037452973221 -1.7522424753972459 1.42201627498755 -1.6219783699500216 C 0.9781960927116093 -1.4989656206438795 0.7077391018701419 -1.3293210733843197 0.6985168643163563 -1.3077529371698207 C 0.647645812003538 -1.1809099843635171 0.5331487578579475 -1.310244428767013 0.6427743881344011 -1.3983019228289675 C 0.6489845239065071 -1.4025411771883691 0.9561073463126226 -1.6106365052165352 1.4224253258467905 -1.7351738986343923 C 1.8852105934147902 -1.867817936353561 2.482090169930175 -1.9292499381231338 2.9697903534700965 -1.9637217696245832 C 3.5642899977135367 -2.0041434318058946 4.161467065762914 -2.035491602200416 4.654224605380718 -2.164751673720413 C 5.149064585736474 -2.2761250667590764 5.5507525295106435 -2.3853416461762893 5.766173586563388 -2.407579138342273 C 5.549674122699917 -2.3550718825924926 5.152969162120133 -2.2209403872033584 4.658947283482859 -2.0913828241493677 C 4.16685909981654 -1.9441988877062868 3.556778336480211 -1.9009510559520413 2.978120116421903 -1.8577032241977958" fill="#769687" transform="matrix(1,0,0,1,0,0)" fill-rule="nonzero"></path></g><g clip-path="url(#a60042c5d-1a98-43eb-baca-2410f665df93f22cecbb-55bb-491c-aaa6-bcfcd349b728)"><path d=" M 1.729250656718913 -1.778867967689627 C 1.729250656718913 -1.778867967689627 1.6845525537364512 -1.7637330858977287 1.6849987910374409 -1.7569651534993862 C 1.6908370623920552 -1.6903270498849339 2.0878023280640843 -1.5728550803994126 2.3829139297852286 -1.32887483608333 C 2.7407218722954174 -1.0207479797499879 3.2082298179655573 -1.141566728992931 3.196887953232071 -1.2446475455215364 C 3.19004564795023 -1.318388259510074 2.9137131993123986 -1.4836448066432348 2.498377831416297 -1.6113430476097688 C 2.079509751554027 -1.7333517629886845 1.7309240465976239 -1.7805785440100874 1.729250656718913 -1.778867967689627" fill="#769687" transform="matrix(1,0,0,1,0,0)" fill-rule="nonzero"></path></g><g clip-path="url(#a60042c5d-1a98-43eb-baca-2410f665df93f22cecbb-55bb-491c-aaa6-bcfcd349b728)"><path d=" M 1.7590741830017202 -1.7600144417228156 C 1.7590741830017202 -1.7600144417228156 1.8034376080084398 -1.7436524073531956 1.8076024894843428 -1.750569085518535 C 1.8467226262044343 -1.8134885449580733 1.92094676393571 -2.273931066695878 2.2265821286718603 -2.5918007707674935 C 2.4070479304804184 -2.778885759207398 2.5282757305826022 -2.9540710862875788 2.610532139731691 -3.1055686499735593 C 2.692007633604049 -3.254797840712843 2.728710651610446 -3.377550284926741 2.700486142322852 -3.410683404525222 C 2.659023259772565 -3.4797014404116187 2.195977687112321 -3.2732795022621635 1.9588397480780797 -2.738240978375592 C 1.731481843223861 -2.2082598105669033 1.7670320815360354 -1.756630475523644 1.7590741830017202 -1.7600144417228156" fill="#769687" transform="matrix(1,0,0,1,0,0)" fill-rule="nonzero"></path></g><g clip-path="url(#a60042c5d-1a98-43eb-baca-2410f665df93f22cecbb-55bb-491c-aaa6-bcfcd349b728)"><path d=" M 3.937939364408857 -1.993917160324882 C 3.937902177967108 -1.993917160324882 3.9051781092278675 -1.9598171932409238 3.9103470246309975 -1.952826142192086 C 3.9629658397060257 -1.894592174412939 4.356807444271127 -1.6030876575414608 4.514254838636969 -1.1427566951289037 C 4.613654197432411 -0.8733781110981615 4.764593964492154 -0.6550193251472329 4.9163518332703795 -0.5206647111076044 C 5.06658505793689 -0.385417622465996 5.202575875413481 -0.342876333104984 5.2329571983225245 -0.37043148644109447 C 5.265272216202524 -0.39913941947142684 5.227081740526161 -0.5164998296317007 5.1492505179452195 -0.6851403429640337 C 5.069671532602068 -0.8528140088108893 4.9520880037912995 -1.0822915408448086 4.766416100137862 -1.3146324288934115 C 4.394179818229008 -1.8007335954381194 3.9313201777775104 -1.9986770248687713 3.937939364408857 -1.993917160324882" fill="#769687" transform="matrix(1,0,0,1,0,0)" fill-rule="nonzero"></path></g><g clip-path="url(#a60042c5d-1a98-43eb-baca-2410f665df93f22cecbb-55bb-491c-aaa6-bcfcd349b728)"><path d=" M 4.601903281839684 -2.0890772647609213 C 4.601903281839684 -2.0890772647609213 4.50692910961239 -2.0810449933431077 4.51470107593796 -2.074760484687504 C 4.586322162746796 -2.0102791946945016 5.191754620864483 -1.7816197643790628 5.59734714102231 -1.4108709401401751 C 5.842033927731627 -1.1880497811793513 6.043101018269206 -1.0308998783475016 6.189169361459813 -0.9003010949245356 C 6.333229636795966 -0.7704460403365516 6.436161707557575 -0.6633119016572904 6.479112047777828 -0.6776286817307078 C 6.515294455599737 -0.6879665125369674 6.53154493064411 -0.8436289576988516 6.422774588527886 -1.0638098792954866 C 6.31415299217866 -1.2824661567804077 6.06359074767298 -1.5214262314603566 5.754794535388153 -1.672254439194853 C 5.131624144556129 -1.9753983123338115 4.601047993679454 -2.081714349294592 4.601903281839684 -2.0890772647609213" fill="#769687" transform="matrix(1,0,0,1,0,0)" fill-rule="nonzero"></path></g><g clip-path="url(#a60042c5d-1a98-43eb-baca-2410f665df93f22cecbb-55bb-491c-aaa6-bcfcd349b728)"><path d=" M 4.5596594840126645 -2.1535213683121746 C 4.5596594840126645 -2.1535213683121746 4.535116432458235 -2.090825027523131 4.54567738191499 -2.087812925741451 C 4.646266706846403 -2.058844687618874 5.287175030392765 -2.0717483829058243 5.851665216144653 -1.839370308415472 C 6.188314073299583 -1.7001814569484552 6.493912251593985 -1.6229080309937505 6.678022324693957 -1.5509894526509207 C 6.771657785018283 -1.5137658244600356 6.819962972850409 -1.4897061966483442 6.850418668642952 -1.4544906363119123 C 6.881618093270478 -1.4162629741938004 6.886935754440605 -1.3650572439052397 6.907611416053124 -1.3568762267204302 C 6.922411619869281 -1.3490670739531114 6.972799248439361 -1.3682924643374146 6.995036740605343 -1.4614445009190011 C 7.019579792159773 -1.5590960969522327 6.947066230748957 -1.6988055586037372 6.840118024278441 -1.7855987136462215 C 6.624027611274212 -1.9705640749064246 6.286077228658062 -2.084243027333534 5.912985658588979 -2.1383121136367778 C 5.156687806295047 -2.239124557218686 4.558915755177682 -2.149765537695512 4.5596594840126645 -2.1535213683121746" fill="#769687" transform="matrix(1,0,0,1,0,0)" fill-rule="nonzero"></path></g><g clip-path="url(#a60042c5d-1a98-43eb-baca-2410f665df93f22cecbb-55bb-491c-aaa6-bcfcd349b728)"><path d=" M 3.951921466506532 -2.025674381578644 C 3.951921466506532 -2.025711568020393 3.988475738745933 -1.9948096349268614 3.9965080101637462 -2.00432936401464 C 4.038268384248026 -2.051072721293304 4.132312895431592 -2.2371164893642326 4.247851169946157 -2.4869350050349297 C 4.365397512315178 -2.734485147758929 4.514143279311722 -3.0509789534858274 4.727519082068265 -3.3080116388558567 C 4.983398987744072 -3.622720495378796 5.1971094684763575 -3.8410049084462257 5.400333372635386 -3.9497008776789504 C 5.601102971638973 -4.063900440290547 5.78119690903004 -4.101979356641663 5.783911519277727 -4.1487970868038255 C 5.790456333025575 -4.182041765727553 5.617985616193081 -4.2812180058725 5.3089662852577595 -4.219786004102927 C 4.99422024229307 -4.164936002522951 4.647307927215379 -3.851045247718492 4.463272226998904 -3.4606991686778095 C 4.268303712908183 -3.067303801413698 4.173887337307125 -2.7009801637429574 4.09144499594929 -2.4421625291689697 C 4.013762519135345 -2.1821177420172604 3.951549602089041 -2.0262321782048813 3.951921466506532 -2.025674381578644" fill="#769687" transform="matrix(1,0,0,1,0,0)" fill-rule="nonzero"></path></g><g clip-path="url(#a60042c5d-1a98-43eb-baca-2410f665df93f22cecbb-55bb-491c-aaa6-bcfcd349b728)"><path d=" M 4.964880139753002 -2.196694827182921 C 4.964880139753002 -2.19673201362467 4.960529326068353 -2.148910249535281 4.974399868840781 -2.1481665207002987 C 5.043492277610676 -2.1432207239476635 5.273527606270832 -2.1771347588228753 5.578270496405003 -2.229976692548398 C 5.881860606844951 -2.279285914307753 6.270124245147682 -2.3471511704999264 6.642658018590528 -2.3152823899209167 C 7.07915247184189 -2.2741913717881213 7.479390144387842 -2.198814454362622 7.797222662017709 -2.2010456408675703 C 8.112972738909624 -2.197401369576155 8.313258914170472 -2.2647088291420916 8.313035795519976 -2.306022965925382 C 8.313630778587964 -2.34912205191263 8.132049383526931 -2.403637375516864 7.8393177140777315 -2.4830304286512703 C 7.548222248065493 -2.554949006994099 7.122363117154385 -2.673201891756353 6.62320950955573 -2.6198021614045928 C 6.132943461535119 -2.5584445325185183 5.733747009358141 -2.4149792402503505 5.440085678865213 -2.330975068339052 C 5.14835804334324 -2.241392930165383 4.964991699078249 -2.1972898102509073 4.964880139753002 -2.196694827182921" fill="#769687" transform="matrix(1,0,0,1,0,0)" fill-rule="nonzero"></path></g><g clip-path="url(#a60042c5d-1a98-43eb-baca-2410f665df93f22cecbb-55bb-491c-aaa6-bcfcd349b728)"><path d=" M 4.697100572717472 -2.2121272005088133 C 4.612910468597428 -2.125780282767319 4.486141888674622 -2.045271636380439 4.481828261431723 -2.0450113312881952 C 4.479708634252022 -2.0438213651522226 4.440923175507673 -2.1011628583293906 4.442410633177638 -2.1143640451503343 C 4.443563412871861 -2.11239316373763 4.56635304352751 -2.1974757424596536 4.6416555880695105 -2.2694686936859814 C 4.736666946738553 -2.3528035096457955 4.82204701699457 -2.4529465972762194 4.863063662243867 -2.4850013100639745 C 4.860423424879679 -2.431080969527727 4.793525016172982 -2.304275203163173 4.697100572717472 -2.2121272005088133" fill="#769687" transform="matrix(1,0,0,1,0,0)" fill-rule="nonzero"></path></g><g clip-path="url(#a60042c5d-1a98-43eb-baca-2410f665df93f22cecbb-55bb-491c-aaa6-bcfcd349b728)"><path d=" M 1.7193590632136426 -1.7517590516545072 C 1.7193590632136426 -1.7517590516545072 1.6844038079694545 -1.7196299659832537 1.6901677064405707 -1.7118951860994334 C 1.7450920809040447 -1.6327252516155224 2.191106263243184 -1.32887483608333 2.5300606797865606 -0.9116801460997719 C 2.9418261492747453 -0.41293558936035657 3.421568434280352 -0.2109760242207983 3.4865703344578414 -0.25615755094599857 C 3.5586748450094166 -0.31290406105518054 3.2595099211376155 -0.7873658713324092 2.721905532770354 -1.149004017342759 C 2.1845614494953365 -1.5161829431737295 1.7182062835194194 -1.7480775939213427 1.7193590632136426 -1.7517590516545072" fill="#769687" transform="matrix(1,0,0,1,0,0)" fill-rule="nonzero"></path></g><g clip-path="url(#a60042c5d-1a98-43eb-baca-2410f665df93f22cecbb-55bb-491c-aaa6-bcfcd349b728)"><path d=" M 5.109646957482389 -0.5243089823990195 C 5.109646957482389 -0.5243089823990195 5.089677838263103 -0.5417494235793643 5.063647329038708 -0.5703457972844501 C 5.050483328659514 -0.5845882044743695 5.0357574977268555 -0.6015824083537242 5.020659802376707 -0.6202128156700417 C 5.00481092805559 -0.6395369673103697 4.989508851549428 -0.659303182829674 4.974771733258272 -0.6794880038181659 C 4.959748410791621 -0.6999405467801894 4.945282884951207 -0.7206162083927099 4.93226763033901 -0.7404737682867482 C 4.920258332690248 -0.7585041114071349 4.90886041025514 -0.776934266726582 4.898093290371551 -0.7957328207259686 C 4.87886789998725 -0.8287543809991975 4.8684928827392415 -0.8527768223691399 4.8684928827392415 -0.8527768223691399 C 4.8684928827392415 -0.8527768223691399 4.888387629075029 -0.8358198049315333 4.91460407050817 -0.8074093634351938 C 4.927879630212612 -0.7933157020122708 4.942717020470517 -0.7763586845746642 4.958037834471161 -0.7577654637000966 C 4.973433021355303 -0.7392094292672775 4.989348818423934 -0.7189800049557475 5.004483700215832 -0.6983787162267263 C 5.019507022682483 -0.6778146139394536 5.0467646844846 -0.6367979686901566 5.0467646844846 -0.6367979686901566 C 5.0597427526550485 -0.61682884947087 5.07130773603903 -0.5978265777370617 5.080641532918063 -0.5811670518334489 C 5.099606618210123 -0.5480339322349685 5.109646957482389 -0.5243089823990195 5.109646957482389 -0.5243089823990195" fill="#8fb0a1" transform="matrix(1,0,0,1,0,0)" fill-rule="nonzero"></path></g><g clip-path="url(#a60042c5d-1a98-43eb-baca-2410f665df93f22cecbb-55bb-491c-aaa6-bcfcd349b728)"><path d=" M 5.498245273760863 -4.150619222449533 C 5.498245273760863 -4.150619222449533 5.492035137988757 -4.148983019012571 5.4806932732552704 -4.145041256187163 C 5.469239849196537 -4.141582917104493 5.452952187710415 -4.134777798264401 5.431941848122153 -4.127228950589327 C 5.41141493227663 -4.118341391011283 5.386053779003719 -4.108784475481755 5.358275507017114 -4.094765186942331 C 5.329976624846021 -4.081973050980628 5.299409369728232 -4.064755728450778 5.265718453503514 -4.046943422852942 C 5.248910181832905 -4.0379814903914 5.232287842371041 -4.027011490075404 5.214587096098452 -4.016562099943897 C 5.1969979091511105 -4.005963964045393 5.178627806927038 -3.99536582814689 5.160852687770951 -3.9826480650686853 L 5.105296143797741 -3.944941013135061 L 5.049442108290538 -3.902622842424544 C 5.010619463104439 -3.875067689088434 4.975217970559263 -3.840670230470483 4.936841562674154 -3.8088014498914733 C 4.927211493151759 -3.8007783699459274 4.918001803626104 -3.792263751327868 4.909249222896295 -3.7832915508515668 L 4.882251866186422 -3.756814804326181 C 4.864365187705087 -3.739002498728345 4.845809153272269 -3.721636430431498 4.828294339208425 -3.703340701090923 L 4.777423286895607 -3.6468544960739853 L 4.7520993200644455 -3.6187415461116386 C 4.74346758741073 -3.6096374835287883 4.73537209335439 -3.6000396048392935 4.727853760044009 -3.5899964266395563 C 4.697621182901961 -3.5502069339679805 4.665603656555954 -3.512723000684851 4.637565079477105 -3.474197847032746 L 4.5595107382456685 -3.3609651319066263 C 4.546792975167464 -3.343115639867041 4.5371616867544375 -3.324076181691483 4.526228872880193 -3.3066357405111386 L 4.4954013126701575 -3.2555787559895744 L 4.4669536847320686 -3.2085750936186663 C 4.457582701411287 -3.1938120762442592 4.450851955454693 -3.1786400080106114 4.443340294221367 -3.1650297703304275 C 4.428874768380953 -3.13740024411082 4.4163057510697445 -3.113340616299128 4.405893547379987 -3.0935574292885883 C 4.385031953558721 -3.053916682384009 4.37261168201451 -3.0314188851257815 4.37261168201451 -3.0314188851257815 C 4.37261168201451 -3.0314188851257815 4.382131411102289 -3.05514383496173 4.399683411607882 -3.0964207853032715 L 4.43162656507039 -3.1709052281267915 C 4.43805981949299 -3.1851476353167105 4.443712158638858 -3.2009518730600934 4.451930362265418 -3.216458619269483 L 4.477737752839318 -3.2653587901695973 C 4.496070668621643 -3.2992728250448096 4.514515143729214 -3.3369055040949354 4.537198873196187 -3.374835674679054 L 4.612278299087692 -3.492158898397579 C 4.6252935536998905 -3.5125370684761057 4.641209350768521 -3.5313534080011686 4.65586080881768 -3.551471272987451 L 4.701562945727369 -3.6115645628540554 C 4.709037420518945 -3.6218280207768165 4.717329997029003 -3.6315336820733415 4.725957251514802 -3.640979038277622 L 4.751504336996459 -3.6697613441914534 L 4.802821626610267 -3.7276234475531096 C 4.8208198644168485 -3.746142295544179 4.839859322592406 -3.7636942960497715 4.8582294248164795 -3.7816553474146044 L 4.885933323919586 -3.808392399032233 C 4.895044002148125 -3.817391517935524 4.9043034261436596 -3.8262047046300696 4.914232206090679 -3.8341626031643843 C 4.953426715694268 -3.8665891803696315 4.990761903210401 -3.8999826050603557 5.03084888741597 -3.92735182618772 C 5.0505948879847615 -3.9413711147271444 5.069522786835071 -3.9558366405675582 5.088896922986371 -3.9687403358545086 L 5.146870585673275 -4.004811184351171 C 5.165463806547843 -4.01689677791964 5.184466078281651 -4.027160235842401 5.202947739830972 -4.036903083580675 C 5.221466587822042 -4.046497185551952 5.2388698425606375 -4.056649084149466 5.25642184306623 -4.064792914892527 C 5.291451471193916 -4.081229322145646 5.32358055686517 -4.096066712403551 5.353143778055733 -4.106739221185553 C 5.3821492026200595 -4.118676068987026 5.408477203378448 -4.1263736624290965 5.429710661617205 -4.133662205011928 C 5.472921306929701 -4.146379968090132 5.498245273760863 -4.150619222449533 5.498245273760863 -4.150619222449533" fill="#8fb0a1" transform="matrix(1,0,0,1,0,0)" fill-rule="nonzero"></path></g><g clip-path="url(#a60042c5d-1a98-43eb-baca-2410f665df93f22cecbb-55bb-491c-aaa6-bcfcd349b728)"><path d=" M 2.992399710053571 -1.2773344278190275 C 2.992399710053571 -1.2773344278190275 2.9568494717413967 -1.2825405296639065 2.9049371990596025 -1.2947748689993723 C 2.875391131316785 -1.3016102875373186 2.846006081862528 -1.3091239330939768 2.816805332114165 -1.3173098526993452 C 2.80085234860377 -1.321958157917991 2.7841928227001573 -1.3262717851608907 2.7675704832382935 -1.3315150734475192 L 2.7169969224594683 -1.3470590060986578 L 2.6668324125398835 -1.36375571844402 C 2.6502100730780196 -1.3690733796141465 2.634182716684142 -1.3753207018280014 2.618527224707756 -1.3807871087651247 C 2.5872534271967322 -1.3920917870568617 2.558285189074155 -1.40335927890685 2.533667764636227 -1.4136227368296117 C 2.4843213564351228 -1.4338521611411417 2.452378202972615 -1.4502885683942601 2.452378202972615 -1.4502885683942601 C 2.452378202972615 -1.4502885683942601 2.4879284412847893 -1.44511965299113 2.5398407139665835 -1.4328853136556643 C 2.5658340367492296 -1.4269354829758027 2.59595505456603 -1.4193122624172294 2.6279725809120364 -1.4103131435139384 C 2.6439255644224158 -1.4057020247370455 2.6605850903260286 -1.4014627703776439 2.677207429787893 -1.3961079227657684 L 2.7277438041249686 -1.3805639901146294 L 2.7779455004863025 -1.3638672777692675 C 2.7945306535064174 -1.3584752437156427 2.7781686191367974 -1.404103007741833 2.8262506883184306 -1.346798701006414 C 2.854790515217184 -1.3365066509409087 2.8830847963688826 -1.3255460266910832 2.911110148389961 -1.313925886500177 C 2.9604565565910628 -1.2937336486303965 2.992399710053571 -1.2773344278190275 2.992399710053571 -1.2773344278190275" fill="#8fb0a1" transform="matrix(1,0,0,1,0,0)" fill-rule="nonzero"></path></g><g clip-path="url(#a60042c5d-1a98-43eb-baca-2410f665df93f22cecbb-55bb-491c-aaa6-bcfcd349b728)"><path d=" M 2.5770271557157196 -3.277964993922555 L 2.570668274176618 -3.2693749258785045 C 2.5664290198172157 -3.2638713324996322 2.5607023077878486 -3.255392823780829 2.552335358394293 -3.2454268573920606 C 2.5297613324038393 -3.2175553246123014 2.506538241753897 -3.190215807856763 2.4826851529981644 -3.1634307533352186 L 2.382318946717243 -3.050049292442099 L 2.326204606117796 -2.9859398668665884 C 2.3070164021752415 -2.964222984885093 2.288274435533677 -2.9415764418598687 2.2692721637998687 -2.9190786446016412 C 2.250753315808799 -2.8963205422511704 2.2313048067740007 -2.8741946094104343 2.213827179151907 -2.8511762019677187 C 2.205048960586125 -2.839852378463449 2.1961359759618664 -2.828633670417616 2.1870901275342876 -2.8175224721847627 L 2.1618777200283636 -2.7840918610522767 C 2.145106634799503 -2.762226233303785 2.129934566565855 -2.7404721648805404 2.115320294958445 -2.7198708761515187 C 2.100334158933543 -2.6995298925147413 2.0882485653650735 -2.6790401631109675 2.075753920937364 -2.6608188066538903 C 2.0697798946110826 -2.652122290993087 2.0641963895029343 -2.6431638672417916 2.0590200221502535 -2.6339701957110155 L 2.044368564101093 -2.609464330598333 C 2.0361727839052524 -2.5962852829081546 2.028566848173013 -2.582748454386339 2.0215732753088727 -2.568893922650026 L 2.0021991391575726 -2.53297181992036 L 2.015177207328021 -2.57172009222296 L 2.022279817702106 -2.592172635184985 C 2.0249944279497933 -2.5995727370930632 2.028750258566456 -2.607158771209887 2.0323201569743725 -2.6155257206034426 C 2.039980563974695 -2.6319621278565606 2.047157547232278 -2.6514478233331085 2.0582019204317716 -2.6708591459261575 C 2.068911615655523 -2.6904564007279523 2.079286632903532 -2.7126195200104375 2.0932315485594577 -2.734113283341438 C 2.1065814811473977 -2.7560160975316794 2.120303278152829 -2.779406369391886 2.1366653125224486 -2.8020900988588586 C 2.152320804498835 -2.82529443851032 2.16890595751895 -2.8489822019045192 2.18697856820903 -2.8720749822307328 C 2.204456195831124 -2.895725559183184 2.223755959098926 -2.9183721022084077 2.242311993531745 -2.941688001185116 C 2.2617976890082923 -2.964148612001594 2.281097452276094 -2.9868323414685674 2.300806266403136 -3.008474850566565 C 2.3199887637612555 -3.029733883688825 2.3396024856155453 -3.0505998090243303 2.3596352172502773 -3.0710596320303685 C 2.3787118618675764 -3.09132624278364 2.3981603709023744 -3.1099194636582084 2.416270168034204 -3.1278805150230413 C 2.4344543380495316 -3.1457300070626264 2.452006338555124 -3.1622779736409923 2.468219627157747 -3.177450041874639 C 2.500609017921245 -3.207868551225433 2.528201357699104 -3.2325975349886082 2.5471664429911636 -3.2501123490524515 L 2.5770271557157196 -3.277964993922555" fill="#8fb0a1" transform="matrix(1,0,0,1,0,0)" fill-rule="nonzero"></path></g><g clip-path="url(#a60042c5d-1a98-43eb-baca-2410f665df93f22cecbb-55bb-491c-aaa6-bcfcd349b728)"><path d=" M 2.023358224512831 -0.7399531581022605 C 2.023358224512831 -0.7399531581022605 2.01435910560954 -0.7418124801897172 1.9990382916088958 -0.7468698362676003 C 1.98379185049175 -0.7520759381124793 1.9622980871607494 -0.7605172603895327 1.937643476281072 -0.7730862777007408 C 1.9255206962708535 -0.7796310914485889 1.912022017915917 -0.7863990238469318 1.8987092717697265 -0.7949890918909825 C 1.88521059341479 -0.80328166840104 1.8709681862248708 -0.8121692279790826 1.8571720163359413 -0.8225814316688411 C 1.842966795587771 -0.8325102116158605 1.8289475070483467 -0.8436289576988525 1.8149654049506716 -0.8551939410828338 C 1.8010204892947457 -0.8669076702338114 1.7876333702650566 -0.8795882468702669 1.773837200376127 -0.8918597726474817 L 1.7357210975832624 -0.9315748924355596 C 1.7236726904565423 -0.945147943673994 1.7124795714900525 -0.9590556728881712 1.701435198290559 -0.9723312325926123 C 1.6909114352755534 -0.9860158431562951 1.681242960420778 -0.9996260808364781 1.6720579093087413 -1.0124554032399304 C 1.6627612988714573 -1.0251731663181354 1.655361196963379 -1.0382627938138311 1.6480726543805484 -1.0499393365230598 C 1.6331608912391449 -1.0730321168492734 1.6235667892678678 -1.0940424564375353 1.6164269924520338 -1.1083592365109527 C 1.6127444046071746 -1.1158984726396417 1.6091864177794704 -1.1234979357942847 1.6057544836700295 -1.1311545253031778 C 1.6023225495605886 -1.138811114812071 1.6119646194421373 -1.124312220021332 1.6223024502483971 -1.1121150671276152 L 1.640560993147223 -1.0899891342868795 C 1.6472545526620674 -1.0812503204758324 1.6558074342643687 -1.072102455805545 1.6644718751919176 -1.061727438557536 C 1.6734709940952086 -1.0515755399600217 1.6825444858819978 -1.0401221159012874 1.6928079438047594 -1.0285943189590552 C 1.7031829610527682 -1.0171408949003218 1.7141901478105126 -1.0051668606570994 1.7250485888012603 -0.9923747246953973 C 1.7365020128599944 -0.9800660124764331 1.7488850979624568 -0.9679432324662143 1.7605988271134347 -0.9548164185287695 L 1.7982686926053095 -0.9171837394786433 C 1.8113583201010055 -0.9050609594684254 1.8240017102957118 -0.8924175692737188 1.8372028971166552 -0.8808525858897376 C 1.8506272025880932 -0.8696222804814986 1.8629359148070574 -0.8573135682625344 1.8760999151862516 -0.8470129238980233 C 1.8889664240314528 -0.8363032286742724 1.9014610684591626 -0.8259653978680124 1.9135838484693808 -0.8165572281054811 C 1.9256694420378502 -0.8070003125759526 1.9374575440723263 -0.7984846174154008 1.9481672392960776 -0.7902664137888413 C 1.965825868575159 -0.7774622812170713 1.9837921938666987 -0.765087959173623 2.0020503933905758 -0.7531543449232037 C 2.015400325978516 -0.7446014633209028 2.023358224512831 -0.7399531581022605 2.023358224512831 -0.7399531581022605" fill="#8fb0a1" transform="matrix(1,0,0,1,0,0)" fill-rule="nonzero"></path></g><g clip-path="url(#a60042c5d-1a98-43eb-baca-2410f665df93f22cecbb-55bb-491c-aaa6-bcfcd349b728)"><path d=" M 7.971292395845416 -2.342949102582274 C 7.971292395845416 -2.342949102582274 7.947567446009467 -2.3465190009901913 7.906290495667926 -2.353547238480778 L 7.8316573070774105 -2.364554425238522 L 7.7346378805539135 -2.3771234425497303 L 7.619768961990832 -2.390770866671663 L 7.4914013650728135 -2.4047157823275893 C 7.446926380740846 -2.4098846977307193 7.400778006530168 -2.413343036813389 7.354071835693254 -2.4183632064495226 C 7.307254105531092 -2.422602460808924 7.259729832975696 -2.4271763931440677 7.212094001095052 -2.4307462915519844 C 7.116971083100761 -2.4391132409455403 7.021736605781223 -2.4452118173923987 6.932377586258048 -2.450715410771271 L 6.803526565597292 -2.4571858516356206 C 6.762547106789744 -2.4580783262375996 6.723761648045396 -2.4604582585095445 6.687988291082727 -2.4607929364852867 C 6.652214934120057 -2.460978868694032 6.619342119613821 -2.462577885689245 6.590262322165996 -2.4620200890630084 C 6.561182524718172 -2.4616482246455167 6.535709812120014 -2.4623547670387502 6.514848218298748 -2.461127614461029 C 6.492927939559849 -2.460191031996745 6.4709993736611615 -2.459459666599332 6.449065402844534 -2.45893361439783 C 6.427131432027905 -2.458407562196328 6.472715979796977 -2.462503512805747 6.51436479455601 -2.467932733301121 C 6.535189201935526 -2.4709076486410515 6.560624728091935 -2.472320733427519 6.5897417119815085 -2.475109716558704 C 6.618895882312831 -2.478159004782133 6.651843069702566 -2.479348970918106 6.68783954531573 -2.4809851743550677 C 6.723798834487145 -2.4829188693260225 6.7627702254402395 -2.4828444964425245 6.804047175781781 -2.48347666595226 C 6.845249753239822 -2.483253547301765 6.888757890086312 -2.483216360860016 6.933716298161019 -2.4816917167483012 C 6.978637519793975 -2.4799067675443425 7.025157758422144 -2.4790142929423635 7.072235793676551 -2.4756675131849413 C 7.119388201814456 -2.473064462262502 7.167209965903845 -2.4695317502963334 7.215031729993234 -2.4658131061214204 C 7.310563698846765 -2.4574833431696135 7.405984108375048 -2.4476661225478415 7.495045636364229 -2.435431783212376 C 7.539669366463192 -2.429891003391755 7.582619706683445 -2.42319744387691 7.623301673957 -2.4167270030125607 C 7.664095200555802 -2.4107771723326987 7.702360049115663 -2.403228324657624 7.737761541660841 -2.397018188885518 C 7.808490153867697 -2.3838913749480732 7.866910053855591 -2.3698348999668997 7.9077407668961435 -2.360203611553873 C 7.9482368019609515 -2.3495311027718713 7.971292395845416 -2.342949102582274 7.971292395845416 -2.342949102582274" fill="#8fb0a1" transform="matrix(1,0,0,1,0,0)" fill-rule="nonzero"></path></g><g clip-path="url(#a60042c5d-1a98-43eb-baca-2410f665df93f22cecbb-55bb-491c-aaa6-bcfcd349b728)"><path d=" M 6.868156601357291 -1.6031620304249588 L 6.826954023899248 -1.6343614550524843 C 6.812897548918075 -1.6428399637712872 6.796609887431953 -1.6538471505290318 6.776938259746659 -1.664891523728525 L 6.744771987633657 -1.6814766767486398 C 6.733616055108916 -1.6875380667537487 6.721642020865694 -1.6934507109918617 6.708812698462243 -1.699065863695981 L 6.669246324441161 -1.7172128472695594 L 6.626110052012163 -1.7350623393091449 C 6.596844322355594 -1.7478916617125972 6.5645664909173425 -1.7583782382858537 6.532139913712096 -1.771356306456302 C 6.499081166997114 -1.7828097305150359 6.465167132121902 -1.7951556291757491 6.430174690435965 -1.8065718667927335 C 6.394994141333118 -1.8185496865292565 6.359625364826247 -1.829967367273325 6.3240817721257 -1.8408205796436814 C 6.288531533813505 -1.8524227494694188 6.252646617525589 -1.8629836989261737 6.217468243630906 -1.873767767033423 L 6.113718071150816 -1.9045953272434568 L 5.929422065842098 -1.9588131593136975 L 5.799157960394873 -1.9982307875677816 C 5.767698230675103 -2.007862075980808 5.749848738635518 -2.013849093102419 5.749848738635518 -2.013849093102419 C 5.749848738635518 -2.013849093102419 5.768441959510087 -2.010874177762488 5.800794163831835 -2.004887160640877 C 5.8330348088283355 -1.998491092660026 5.87933192880601 -1.9904216348004633 5.9344050490364815 -1.9784104141154923 C 5.96199738881434 -1.9725721427608778 5.991820915097147 -1.9661388883382775 6.023243458375167 -1.9585900406632026 C 6.0562536467906 -1.9510392348363683 6.089154590573807 -1.9430185450745996 6.121936274777344 -1.9345304128515188 C 6.156110614744831 -1.9258659719239626 6.1913261750812625 -1.9164578021614314 6.2269507862769355 -1.9064546493309136 C 6.26250102458911 -1.8958936998741591 6.2987206188527685 -1.885741801276645 6.334605535140685 -1.8743999365431585 C 6.370344175078605 -1.8630577031881113 6.405898967928023 -1.8511441202284553 6.441256250077245 -1.8386637660222256 C 6.476471810413639 -1.8270244097547588 6.510199913080106 -1.8126704432395924 6.543258659795088 -1.8002129852536317 C 6.575833982767332 -1.7863052560394546 6.607591204021094 -1.7736618658447485 6.636708187910667 -1.7590104077955884 L 6.6793238501551775 -1.7384091190665671 L 6.7180721224577775 -1.7169525421773155 C 6.743321716405441 -1.7040116604486162 6.7644064288772014 -1.6882074227052333 6.7838177514702505 -1.6759730833697675 C 6.802745650320561 -1.6625487778983294 6.818326769413449 -1.6494591504026337 6.831416396909145 -1.639530370455614 C 6.84365073624461 -1.6285231836978697 6.852315177172159 -1.6188918952848437 6.858636872269512 -1.6127561323962363 L 6.868156601357291 -1.6031620304249588" fill="#8fb0a1" transform="matrix(1,0,0,1,0,0)" fill-rule="nonzero"></path></g><g clip-path="url(#a60042c5d-1a98-43eb-baca-2410f665df93f22cecbb-55bb-491c-aaa6-bcfcd349b728)"><path d=" M 6.366771807253688 -0.8979583490943401 L 6.3315562469172555 -0.9397187231786202 C 6.319656585557532 -0.9523249269315772 6.305860415668603 -0.9680176053497127 6.288977771114495 -0.9851605549960643 C 6.271574516375899 -1.0018944537831755 6.252981295501331 -1.0215660814684688 6.231227227078087 -1.0417583193382502 C 6.208229812982585 -1.063851252949008 6.184911434692777 -1.0856076346069625 6.161279530147981 -1.1070205246079654 C 6.136513359943037 -1.130224864259445 6.109106952373923 -1.1533176445856586 6.081663358363061 -1.1781581876740814 C 6.0538478999347065 -1.202589679903264 6.024507797394639 -1.227207104341192 5.995018949087573 -1.2525310711723536 C 5.965195422804767 -1.2775203600277734 5.935148777871464 -1.3031418183929282 5.904172471894434 -1.3277220563891072 C 5.843521385401592 -1.3783699900514303 5.780787858170799 -1.4263776863495656 5.7223679581829066 -1.4720054503757556 C 5.6925072454583505 -1.493796705240749 5.664394295496003 -1.516108570290231 5.636876328601643 -1.5359289437425208 C 5.609209615940285 -1.5556005714278136 5.583662530458629 -1.5751978262296085 5.559156665345948 -1.5918201656914728 C 5.534762359558515 -1.608628437362082 5.512747986043026 -1.6246929801977088 5.492518561731496 -1.6377826076934046 C 5.472363510303464 -1.6509466080725992 5.4551833742153635 -1.6632925067333124 5.4401600517487125 -1.6718825747773627 C 5.410634016999898 -1.689955185467443 5.393862931771038 -1.7007764400164418 5.393862931771038 -1.7007764400164418 C 5.393862931771038 -1.7007764400164418 5.4120099153446155 -1.6927813550403772 5.443506831506134 -1.6778695918989737 C 5.459459815016514 -1.6707297950831395 5.4777183579153395 -1.660206032068134 5.499286494129839 -1.649012913101644 C 5.523364696046323 -1.636414095028881 5.547004338468219 -1.6229943190055374 5.570163852103695 -1.6087771831290767 C 5.596119988444589 -1.593865419987675 5.623117345154462 -1.5761274872733373 5.651862464626545 -1.5575342663987688 C 5.6806447705403755 -1.5390154184076992 5.710133618847441 -1.518265383911681 5.740775246848729 -1.4969575527894263 C 5.770710332456784 -1.4747200606234427 5.802541926594045 -1.4528544328749504 5.83329511392058 -1.4285716864127647 C 5.8642714198976105 -1.4046236179263212 5.895731149617379 -1.3802293121388876 5.926484336943915 -1.354942531749475 C 5.957349083595698 -1.3298788700105573 5.987395728529 -1.3037739879026637 6.017144881928309 -1.2783012753045053 C 6.046782476002371 -1.2526798169393505 6.075006985289965 -1.226389002622711 6.102413392859079 -1.2010650357915496 C 6.129559495335949 -1.1754063909846457 6.155627191002092 -1.1505286614544734 6.179426513721539 -1.125874050574796 C 6.191363361523012 -1.1136025247975812 6.203263022882736 -1.1020003549718504 6.214233023198732 -1.0902122529373748 L 6.2456927529185 -1.0557776078776744 C 6.266294041647522 -1.0341722852214263 6.283065126876382 -1.0122694710311846 6.2987206188527685 -0.9938249959236134 C 6.314004246411663 -0.9748599106315536 6.326424517955875 -0.9575310287764567 6.337059840296128 -0.9437720453292759 C 6.347211738893643 -0.9296783839063534 6.3539424848502355 -0.9177415361048809 6.359111400253366 -0.9100067562210601 L 6.366771807253688 -0.8979583490943401" fill="#8fb0a1" transform="matrix(1,0,0,1,0,0)" fill-rule="nonzero"></path></g><g clip-path="url(#a60042c5d-1a98-43eb-baca-2410f665df93f22cecbb-55bb-491c-aaa6-bcfcd349b728)"><path d=" M 3.2197204284660406 -0.4950060663007001 C 3.2197204284660406 -0.4950060663007001 3.16505635909481 -0.5341262030207918 3.0861467297031435 -0.5963019336253472 C 3.0411317155445903 -0.6315979995734504 2.9965541704680003 -0.6674484612980054 2.952424285173228 -0.7038451231638665 C 2.9038959786906267 -0.7437089887189234 2.854177706072032 -0.7887045832353783 2.803790077501952 -0.8328077031498533 L 2.729528753328927 -0.8998176711817969 C 2.704911328890999 -0.9217576718137872 2.681372311263796 -0.9441439097467672 2.658242344495833 -0.9653773679855235 C 2.6162269356445482 -1.0042493521374012 2.5747110669707407 -1.04365781631 2.5337049510780494 -1.083593066305958 C 2.461526067642903 -1.153540763236153 2.4156008120827197 -1.2024409341362672 2.4156008120827197 -1.2024409341362672 C 2.4156008120827197 -1.2024409341362672 2.469595525502465 -1.1622052041637017 2.547352375199909 -1.0985420158891808 C 2.591651562629361 -1.0624127814561906 2.6354977967634805 -1.025731693867031 2.6788808196665816 -0.9885073347535047 C 2.7026057695025525 -0.9679432324662143 2.7274463125909754 -0.9471931979701966 2.752026550587155 -0.9252903837799553 L 2.8269200442699147 -0.8593216361169875 L 2.900995436234194 -0.7924604138520408 C 2.925612860672122 -0.7705947861035485 2.948817200323583 -0.7479110566365756 2.9725049637177827 -0.727346954349303 C 3.0152233802769115 -0.6892826491296256 3.0574703952931332 -0.6506925793686231 3.0992363571987975 -0.6115855611842811 C 3.1727167660951325 -0.5430509490405844 3.2197204284660406 -0.4950060663007001 3.2197204284660406 -0.4950060663007001" fill="#8fb0a1" transform="matrix(1,0,0,1,0,0)" fill-rule="nonzero"></path></g><g clip-path="url(#a60042c5d-1a98-43eb-baca-2410f665df93f22cecbb-55bb-491c-aaa6-bcfcd349b728)"><path d=" M 4.018187705703493 -2.2827070669486735 C 4.047788113335805 -1.9266097007589456 3.7241916972348226 -1.6090003017795733 3.295432023867282 -1.5733385041421517 C 2.8666723504997416 -1.53767670650473 2.4950682381006235 -1.7974240021224466 2.4654306440265623 -2.1535213683121746 C 2.4357930499525007 -2.5096187345019025 2.759389466053484 -2.8272653199230238 3.188186325862773 -2.862927117560446 C 3.6169459992303135 -2.898551728756118 3.9885501116294315 -2.638841619580151 4.018187705703493 -2.2827070669486735" fill="#212121" transform="matrix(1,0,0,1,0,0)" fill-rule="nonzero"></path></g><g clip-path="url(#a60042c5d-1a98-43eb-baca-2410f665df93f22cecbb-55bb-491c-aaa6-bcfcd349b728)"><path d=" M 5.343512489642707 -3.605503172848946 C 5.151853568867659 -3.588248663877347 4.950191495262094 -3.4876593389459334 4.79449186365846 -3.3131805542589863 C 4.512841753850503 -2.997653596017566 4.488149956529076 -2.5600807359554802 4.739344370544491 -2.335846492208189 C 4.990575971001656 -2.1116122484608977 5.422533678359621 -2.185613267541679 5.704183788167579 -2.5012145986665977 C 5.985833897975536 -2.816741556908018 6.010525695296963 -3.2543144169701037 5.759294094839799 -3.478511474275646 C 5.646991040757408 -3.5788033076730663 5.4985055788531065 -3.619410902063123 5.343512489642707 -3.605503172848946" fill="#212121" transform="matrix(1,0,0,1,0,0)" fill-rule="nonzero"></path></g><g clip-path="url(#a60042c5d-1a98-43eb-baca-2410f665df93f22cecbb-55bb-491c-aaa6-bcfcd349b728)"><path d=" M 5.014189361512357 -1.0040512674046251 C 5.167211569310052 -1.3682924643374141 5.040517362270745 -1.7689020013008587 4.7312377262431795 -1.8987942423305912 C 4.421958090215614 -2.0287236698020727 4.047230316709569 -1.8387753253474854 3.894208108911873 -1.4745341284146964 C 3.7411859011141773 -1.110292931481907 3.867880108153485 -0.7096833945184633 4.177122557739301 -0.5797539670469813 C 4.486439380208616 -0.44982453957549984 4.8611671537146615 -0.6398100704718361 5.014189361512357 -1.0040512674046251" fill="#212121" transform="matrix(1,0,0,1,0,0)" fill-rule="nonzero"></path></g><g clip-path="url(#a60042c5d-1a98-43eb-baca-2410f665df93f22cecbb-55bb-491c-aaa6-bcfcd349b728)"><path d=" M 5.35630462560441 -2.479683648893848 C 5.365415303832949 -2.496008496821719 5.382632626362798 -2.5149363956720294 5.40364296595106 -2.538066362439992 C 5.413832050990324 -2.5501147695667123 5.425248288607309 -2.562832532644917 5.437705746593269 -2.57603371946586 C 5.449493848627745 -2.5900901944470336 5.461728187963211 -2.6052994491224304 5.4751153069929 -2.620620263123074 C 5.527027579674694 -2.6834653496791145 5.578939852356489 -2.7662795554544406 5.6133373109744396 -2.8561963716038523 C 5.649556905238098 -2.9457785097775213 5.6610847021803306 -3.042946682068014 5.657812295306407 -3.125240277658852 C 5.656119876890971 -3.1623224832541723 5.651745234861456 -3.1992335253782094 5.6447226678107105 -3.2356840096537876 C 5.643160837257247 -3.2437162810716003 5.642900532165003 -3.2514510609554206 5.640706532101804 -3.2590370950722445 C 5.6387728371308485 -3.2666231291890684 5.63702507436864 -3.2738372988884006 5.635537616698674 -3.280679604170242 C 5.632562701358743 -3.294327028292175 5.63051744706254 -3.306449808302393 5.629550599577063 -3.3168248255504023 C 5.638148326456215 -3.308026332253056 5.64623121717197 -3.2987390784045383 5.6537589731557505 -3.2890093671220484 C 5.662534973408547 -3.277964993922555 5.672054702496325 -3.2655819088200926 5.679752295938397 -3.2494801795427164 C 5.697304296443989 -3.218206382031693 5.712922601978627 -3.1786771944523613 5.722739822600398 -3.1331981761931678 C 5.742634568936186 -3.0424632583252755 5.737577212858303 -2.9262556278592244 5.696634940492505 -2.8235094893063613 C 5.657849481748156 -2.7200568083602645 5.591657615434693 -2.62984250067686 5.5238295456842685 -2.5720547701987027 C 5.506463477387422 -2.55796110877578 5.490138629459551 -2.544648362629589 5.474260018832671 -2.5332693114543536 C 5.4590447993459685 -2.5235677411985633 5.443569563590415 -2.514280119739501 5.4278513395297505 -2.505416666584252 C 5.3986227963149265 -2.490467717001098 5.373484761692511 -2.4825841913502806 5.35630462560441 -2.479683648893848" fill="#8fb0a1" transform="matrix(1,0,0,1,0,0)" fill-rule="nonzero"></path></g><g clip-path="url(#a60042c5d-1a98-43eb-baca-2410f665df93f22cecbb-55bb-491c-aaa6-bcfcd349b728)"><path d=" M 4.789620439789323 -0.908556484992844 C 4.791554134760279 -0.9254763159887007 4.79925172820235 -0.9470816386449492 4.809292067474617 -0.9729634021023479 C 4.813791626926262 -0.9862761482485385 4.819146474538138 -1.0004441825549595 4.8252450509849965 -1.015355945696363 L 4.842090509097355 -1.0638842521789855 C 4.8655551538410595 -1.131972627021654 4.881805628885433 -1.2158280531659562 4.884706171341865 -1.3013940556307184 C 4.888090137541036 -1.3870716174207285 4.875483933788079 -1.4740507046719578 4.860869662180669 -1.5479029779857427 C 4.853358000947343 -1.584903487526133 4.845474475296527 -1.6186687766343484 4.838966847990427 -1.647376709664682 C 4.833054203752314 -1.6764936935542556 4.8266209493297145 -1.7016689146184207 4.826025966261728 -1.7202993219347373 C 4.844182516896854 -1.7029846703433504 4.860154755980117 -1.6835157721957303 4.873587425258873 -1.6623256592478342 C 4.890804747788723 -1.6361835906981916 4.908133629643821 -1.6037198270511959 4.923640375853211 -1.566310266651565 C 4.954282003854499 -1.49160270517755 4.977300411297215 -1.3952898210472875 4.974102377306789 -1.2976010385723065 C 4.971685258593094 -1.2001725611895697 4.9447622747667195 -1.1037481177340593 4.904489358352405 -1.0348788276146594 C 4.8940027817791485 -1.0178846237353039 4.884445866249621 -1.0017085215744301 4.874145221885111 -0.9875776737097581 C 4.863286780894362 -0.9738186902625778 4.852911763646353 -0.9613984187183666 4.843206102349829 -0.9505399777276184 C 4.822679186504305 -0.9296411974646044 4.803751287653996 -0.9156962818086782 4.789620439789323 -0.908556484992844" fill="#8fb0a1" transform="matrix(1,0,0,1,0,0)" fill-rule="nonzero"></path></g><g clip-path="url(#a60042c5d-1a98-43eb-baca-2410f665df93f22cecbb-55bb-491c-aaa6-bcfcd349b728)"><path d=" M 3.8435973616912986 -2.3586417810004097 C 3.8372012937104474 -2.3663021880007316 3.8310283443800905 -2.376082222180755 3.82373980179726 -2.3870894089384986 C 3.8157447168211958 -2.3978734770457484 3.8078611911703786 -2.4102565621482106 3.7973746145971226 -2.4227512065759207 C 3.773984140007935 -2.4519950106584707 3.7468395808582997 -2.4780267804187384 3.7166428495597468 -2.5001733782976228 C 3.649446949319058 -2.550970057726942 3.552427522795562 -2.5905736181897723 3.4503879266359325 -2.617310669807401 C 3.347939279617062 -2.6437874163327857 3.2406192087290555 -2.6579554506392067 3.1492893077931767 -2.6639796542025667 C 3.1035499844417394 -2.667066128867745 3.0617896103574593 -2.6681817221202193 3.0261278127200373 -2.668516400095961 C 2.990428828640867 -2.668888264513453 2.9613862176347916 -2.668404840770714 2.938888420376564 -2.669743552673683 C 2.975108014640223 -2.6947700279708515 3.0521955083861823 -2.720912096520494 3.149029002700933 -2.7293906052392973 C 3.2456765648069377 -2.7384640970260867 3.3618098223894903 -2.7319564697199876 3.47374101205439 -2.7036947739906445 C 3.5850028457678054 -2.6753587053778025 3.6938475607675274 -2.6235579920212557 3.762977155979171 -2.551007244168691 C 3.797634919689366 -2.515494192298266 3.821397055967064 -2.476188123369429 3.833445463093784 -2.441455986775736 C 3.8399530903998826 -2.4242386642458857 3.842630514205821 -2.4078394434345167 3.8444898362932776 -2.394006087103838 C 3.8456798024292502 -2.3799124256809154 3.8448617007107693 -2.3679012049959445 3.8435973616912986 -2.3586417810004097" fill="#8fb0a1" transform="matrix(1,0,0,1,0,0)" fill-rule="nonzero"></path></g></g><g><path d=" M 1.5735000000000001 -2.220446049250313e-16 L 1.314 1.0574999999999999 L 0.9525 1.0574999999999999 L 0.807 0.40949999999999986 L 0.6585 1.0574999999999999 L 0.297 1.0574999999999999 L 0.0405 -2.220446049250313e-16 L 0.3585 -2.220446049250313e-16 L 0.4815 0.7229999999999999 L 0.648 -2.220446049250313e-16 L 0.9705 -2.220446049250313e-16 L 1.1325 0.7169999999999999 L 1.2555 -2.220446049250313e-16 L 1.5735000000000001 -2.220446049250313e-16 M 2.0069831542968752 0.23549999999999982 L 2.0069831542968752 0.4079999999999999 L 2.344483154296875 0.4079999999999999 L 2.344483154296875 0.6315 L 2.0069831542968752 0.6315 L 2.0069831542968752 0.8219999999999998 L 2.389483154296875 0.8219999999999998 L 2.389483154296875 1.0574999999999999 L 1.7129831542968752 1.0574999999999999 L 1.7129831542968752 -2.220446049250313e-16 L 2.389483154296875 -2.220446049250313e-16 L 2.389483154296875 0.23549999999999982 L 2.0069831542968752 0.23549999999999982 M 3.8309121093750003 1.0574999999999999 L 3.5369121093750002 1.0574999999999999 L 3.1454121093750005 0.4664999999999999 L 3.1454121093750005 1.0574999999999999 L 2.8514121093750004 1.0574999999999999 L 2.8514121093750004 -2.220446049250313e-16 L 3.1454121093750005 -2.220446049250313e-16 L 3.5369121093750002 0.5984999999999998 L 3.5369121093750002 -2.220446049250313e-16 L 3.8309121093750003 -2.220446049250313e-16 L 3.8309121093750003 1.0574999999999999 M 4.682934082031251 0.8849999999999999 L 4.307934082031251 0.8849999999999999 L 4.25093408203125 1.0574999999999999 L 3.9419340820312505 1.0574999999999999 L 4.3274340820312505 -2.220446049250313e-16 L 4.666434082031251 -2.220446049250313e-16 L 5.05043408203125 1.0574999999999999 L 4.739934082031251 1.0574999999999999 L 4.682934082031251 0.8849999999999999 M 4.6094340820312505 0.6599999999999999 L 4.495434082031251 0.31799999999999984 L 4.382934082031251 0.6599999999999999 L 4.6094340820312505 0.6599999999999999 M 5.957941406250001 -2.220446049250313e-16 L 5.957941406250001 0.23399999999999987 L 5.675941406250001 0.23399999999999987 L 5.675941406250001 1.0574999999999999 L 5.381941406250001 1.0574999999999999 L 5.381941406250001 0.23399999999999987 L 5.102941406250001 0.23399999999999987 L 5.102941406250001 -2.220446049250313e-16 L 5.957941406250001 -2.220446049250313e-16 M 6.370447265625001 -2.220446049250313e-16 L 6.370447265625001 0.6134999999999999 Q 6.370447265625001 0.6989999999999998 6.410197265625 0.7454999999999998 Q 6.449947265625001 0.7919999999999998 6.5309472656250005 0.7919999999999998 Q 6.611947265625001 0.7919999999999998 6.653197265625001 0.7447499999999998 Q 6.6944472656250005 0.6974999999999999 6.6944472656250005 0.6134999999999999 L 6.6944472656250005 -2.220446049250313e-16 L 6.988447265625001 -2.220446049250313e-16 L 6.988447265625001 0.6134999999999999 Q 6.988447265625001 0.7589999999999999 6.926947265625 0.8617499999999999 Q 6.865447265625001 0.9644999999999999 6.759697265625 1.0162499999999999 Q 6.653947265625001 1.0679999999999998 6.524947265625 1.0679999999999998 Q 6.395947265625001 1.0679999999999998 6.294697265625 1.0162499999999999 Q 6.193447265625001 0.9644999999999999 6.135697265625001 0.8624999999999998 Q 6.077947265625001 0.7605 6.077947265625001 0.6134999999999999 L 6.077947265625001 -2.220446049250313e-16 L 6.370447265625001 -2.220446049250313e-16 M 7.700909912109376 1.0574999999999999 L 7.490909912109376 0.6674999999999999 L 7.4594099121093755 0.6674999999999999 L 7.4594099121093755 1.0574999999999999 L 7.165409912109375 1.0574999999999999 L 7.165409912109375 -2.220446049250313e-16 L 7.628909912109376 -2.220446049250313e-16 Q 7.756409912109375 -2.220446049250313e-16 7.844909912109376 0.0442499999999999 Q 7.933409912109376 0.08849999999999991 7.978409912109376 0.16574999999999984 Q 8.023409912109376 0.24299999999999988 8.023409912109376 0.33899999999999986 Q 8.023409912109376 0.44699999999999984 7.964159912109375 0.5287499999999998 Q 7.9049099121093755 0.6104999999999998 7.790909912109376 0.6449999999999998 L 8.029409912109376 1.0574999999999999 L 7.700909912109376 1.0574999999999999 M 7.4594099121093755 0.4664999999999999 L 7.604909912109376 0.4664999999999999 Q 7.664909912109375 0.4664999999999999 7.694909912109376 0.43799999999999983 Q 7.724909912109375 0.40949999999999986 7.724909912109375 0.3554999999999998 Q 7.724909912109375 0.3044999999999999 7.6941599121093756 0.2752499999999999 Q 7.663409912109375 0.24599999999999989 7.604909912109376 0.24599999999999989 L 7.4594099121093755 0.24599999999999989 L 7.4594099121093755 0.4664999999999999 M 8.465926025390626 0.23549999999999982 L 8.465926025390626 0.4079999999999999 L 8.803426025390626 0.4079999999999999 L 8.803426025390626 0.6315 L 8.465926025390626 0.6315 L 8.465926025390626 0.8219999999999998 L 8.848426025390626 0.8219999999999998 L 8.848426025390626 1.0574999999999999 L 8.171926025390626 1.0574999999999999 L 8.171926025390626 -2.220446049250313e-16 L 8.848426025390626 -2.220446049250313e-16 L 8.848426025390626 0.23549999999999982 L 8.465926025390626 0.23549999999999982 M 1.7594117431640632 1.98525 Q 1.814161743164063 2.0564999999999998 1.814161743164063 2.1479999999999997 Q 1.814161743164063 2.283 1.7211617431640631 2.3595 Q 1.6281617431640631 2.436 1.460161743164063 2.436 L 0.936661743164063 2.436 L 0.936661743164063 1.3784999999999998 L 1.443661743164063 1.3784999999999998 Q 1.6056617431640632 1.3784999999999998 1.6979117431640631 1.4505 Q 1.790161743164063 1.5225 1.790161743164063 1.653 Q 1.790161743164063 1.746 1.741411743164063 1.80825 Q 1.692661743164063 1.8704999999999998 1.611661743164063 1.8929999999999998 Q 1.704661743164063 1.914 1.7594117431640632 1.98525 M 1.2306617431640632 1.7984999999999998 L 1.379161743164063 1.7984999999999998 Q 1.4901617431640632 1.7984999999999998 1.4901617431640632 1.7069999999999999 Q 1.4901617431640632 1.6124999999999998 1.379161743164063 1.6124999999999998 L 1.2306617431640632 1.6124999999999998 L 1.2306617431640632 1.7984999999999998 M 1.5126617431640632 2.106 Q 1.5126617431640632 2.058 1.483411743164063 2.0324999999999998 Q 1.4541617431640632 2.007 1.400161743164063 2.007 L 1.2306617431640632 2.007 L 1.2306617431640632 2.199 L 1.401661743164063 2.199 Q 1.5126617431640632 2.199 1.5126617431640632 2.106 M 2.6271925048828133 2.2635 L 2.2521925048828133 2.2635 L 2.1951925048828134 2.436 L 1.8861925048828132 2.436 L 2.271692504882813 1.3784999999999998 L 2.610692504882813 1.3784999999999998 L 2.9946925048828135 2.436 L 2.6841925048828132 2.436 L 2.6271925048828133 2.2635 M 2.553692504882813 2.0385 L 2.4396925048828133 1.6965 L 2.327192504882813 2.0385 L 2.553692504882813 2.0385 M 3.3996998291015634 2.211 L 3.7281998291015634 2.211 L 3.7281998291015634 2.436 L 3.1056998291015634 2.436 L 3.1056998291015634 1.3784999999999998 L 3.3996998291015634 1.3784999999999998 L 3.3996998291015634 2.211 M 4.526241577148438 2.2635 L 4.151241577148438 2.2635 L 4.094241577148438 2.436 L 3.785241577148438 2.436 L 4.170741577148438 1.3784999999999998 L 4.509741577148438 1.3784999999999998 L 4.893741577148438 2.436 L 4.5832415771484385 2.436 L 4.526241577148438 2.2635 M 4.452741577148438 2.0385 L 4.338741577148438 1.6965 L 4.226241577148438 2.0385 L 4.452741577148438 2.0385 M 5.984248901367189 2.436 L 5.690248901367188 2.436 L 5.298748901367189 1.845 L 5.298748901367189 2.436 L 5.004748901367188 2.436 L 5.004748901367188 1.3784999999999998 L 5.298748901367189 1.3784999999999998 L 5.690248901367188 1.9769999999999999 L 5.690248901367188 1.3784999999999998 L 5.984248901367189 1.3784999999999998 L 5.984248901367189 2.436 M 6.196520874023439 1.62675 Q 6.261770874023439 1.5045 6.381770874023439 1.4362499999999998 Q 6.501770874023439 1.3679999999999999 6.65777087402344 1.3679999999999999 Q 6.855770874023439 1.3679999999999999 6.990770874023439 1.47375 Q 7.12577087402344 1.5795 7.164770874023439 1.761 L 6.848270874023439 1.761 Q 6.8197708740234395 1.701 6.769520874023439 1.6694999999999998 Q 6.719270874023439 1.638 6.653270874023439 1.638 Q 6.551270874023439 1.638 6.4905208740234395 1.71075 Q 6.429770874023439 1.7835 6.429770874023439 1.9049999999999998 Q 6.429770874023439 2.028 6.4905208740234395 2.10075 Q 6.551270874023439 2.1734999999999998 6.653270874023439 2.1734999999999998 Q 6.719270874023439 2.1734999999999998 6.769520874023439 2.142 Q 6.8197708740234395 2.1105 6.848270874023439 2.0505 L 7.164770874023439 2.0505 Q 7.12577087402344 2.2319999999999998 6.990770874023439 2.3377499999999998 Q 6.855770874023439 2.4435 6.65777087402344 2.4435 Q 6.501770874023439 2.4435 6.381770874023439 2.37525 Q 6.261770874023439 2.307 6.196520874023439 2.1847499999999997 Q 6.131270874023439 2.0625 6.131270874023439 1.9049999999999998 Q 6.131270874023439 1.7489999999999999 6.196520874023439 1.62675 M 7.613264282226565 1.6139999999999999 L 7.613264282226565 1.7865 L 7.950764282226565 1.7865 L 7.950764282226565 2.01 L 7.613264282226565 2.01 L 7.613264282226565 2.2005 L 7.995764282226565 2.2005 L 7.995764282226565 2.436 L 7.319264282226564 2.436 L 7.319264282226564 1.3784999999999998 L 7.995764282226565 1.3784999999999998 L 7.995764282226565 1.6139999999999999 L 7.613264282226565 1.6139999999999999" fill="#212121" fill-rule="nonzero"></path></g><g><path d=" M 2.4595587158203123 2.7852 L 2.4595587158203123 3.3117 L 2.3313087158203123 3.3117 L 2.3313087158203123 3.09495 L 2.1318087158203123 3.09495 L 2.1318087158203123 3.3117 L 2.0035587158203123 3.3117 L 2.0035587158203123 2.7852 L 2.1318087158203123 2.7852 L 2.1318087158203123 2.99145 L 2.3313087158203123 2.99145 L 2.3313087158203123 2.7852 L 2.4595587158203123 2.7852 M 2.687572265625 2.88795 L 2.687572265625 2.99445 L 2.859322265625 2.99445 L 2.859322265625 3.0934500000000003 L 2.687572265625 3.0934500000000003 L 2.687572265625 3.20895 L 2.881822265625 3.20895 L 2.881822265625 3.3117 L 2.559322265625 3.3117 L 2.559322265625 2.7852 L 2.881822265625 2.7852 L 2.881822265625 2.88795 L 2.687572265625 2.88795 M 3.300333984375 3.2187 L 3.103833984375 3.2187 L 3.0723339843749997 3.3117 L 2.938083984375 3.3117 L 3.128583984375 2.7852 L 3.277083984375 2.7852 L 3.467583984375 3.3117 L 3.331833984375 3.3117 L 3.300333984375 3.2187 M 3.267333984375 3.1197 L 3.202083984375 2.92695 L 3.137583984375 3.1197 L 3.267333984375 3.1197 M 3.6610836181640622 3.2127 L 3.8290836181640624 3.2127 L 3.8290836181640624 3.3117 L 3.5328336181640623 3.3117 L 3.5328336181640623 2.7852 L 3.6610836181640622 2.7852 L 3.6610836181640622 3.2127 M 4.276825927734375 2.7852 L 4.276825927734375 2.88795 L 4.137325927734375 2.88795 L 4.137325927734375 3.3117 L 4.009075927734375 3.3117 L 4.009075927734375 2.88795 L 3.869575927734375 2.88795 L 3.869575927734375 2.7852 L 4.276825927734375 2.7852 M 4.804828491210938 2.7852 L 4.804828491210938 3.3117 L 4.676578491210938 3.3117 L 4.676578491210938 3.09495 L 4.477078491210938 3.09495 L 4.477078491210938 3.3117 L 4.348828491210938 3.3117 L 4.348828491210938 2.7852 L 4.477078491210938 2.7852 L 4.477078491210938 2.99145 L 4.676578491210938 2.99145 L 4.676578491210938 2.7852 L 4.804828491210938 2.7852 M 5.356092041015626 2.7852 L 5.173842041015626 3.1377 L 5.173842041015626 3.3117 L 5.045592041015626 3.3117 L 5.045592041015626 3.1377 L 4.863342041015626 2.7852 L 5.008842041015626 2.7852 L 5.1108420410156254 3.0057 L 5.212092041015626 2.7852 L 5.356092041015626 2.7852 M 5.710088745117189 3.2127 L 5.878088745117188 3.2127 L 5.878088745117188 3.3117 L 5.581838745117189 3.3117 L 5.581838745117189 2.7852 L 5.710088745117189 2.7852 L 5.710088745117189 3.2127 M 6.075331054687502 2.7852 L 6.075331054687502 3.3117 L 5.9470810546875015 3.3117 L 5.9470810546875015 2.7852 L 6.075331054687502 2.7852 M 6.518568237304689 2.7852 L 6.518568237304689 2.88795 L 6.30406823730469 2.88795 L 6.30406823730469 2.9989500000000002 L 6.4645682373046895 2.9989500000000002 L 6.4645682373046895 3.0987 L 6.30406823730469 3.0987 L 6.30406823730469 3.3117 L 6.175818237304689 3.3117 L 6.175818237304689 2.7852 L 6.518568237304689 2.7852 M 6.721816040039065 2.88795 L 6.721816040039065 2.99445 L 6.893566040039064 2.99445 L 6.893566040039064 3.0934500000000003 L 6.721816040039065 3.0934500000000003 L 6.721816040039065 3.20895 L 6.916066040039064 3.20895 L 6.916066040039064 3.3117 L 6.5935660400390645 3.3117 L 6.5935660400390645 2.7852 L 6.916066040039064 2.7852 L 6.916066040039064 2.88795 L 6.721816040039065 2.88795" fill="#769687" fill-rule="nonzero"></path></g></g><defs><clipPath id="SvgjsClipPath3243"><path d=" M 0.5968492213811416 -4.239443352012168 h 7.716188031847093 v 3.989443352012168 h -7.716188031847093 Z"></path></clipPath><clipPath id="a60042c5d-1a98-43eb-baca-2410f665df93f22cecbb-55bb-491c-aaa6-bcfcd349b728"><path d=" M 0.5968491325742177 -0.25002178805739117 L 8.313072981961726 -0.25002178805739117 L 8.313072981961726 -4.23945763178822 L 0.5968491325742177 -4.23945763178822 Z"></path></clipPath></defs></svg>